<svg id="Layer_1" data-name="Layer 1" xmlns="http://www.w3.org/2000/svg" viewBox="0 0 841.88983 99.2126"><path d="M156.44541,11.61414v29.0482c3.08572-5.42708,11.70454-8.40679,17.23651-8.40679,15.32259,0,26.708,9.36431,26.708,27.45233,0,17.23764-11.59852,27.45346-27.02714,27.45346-6.38347,0-12.87409-2.12933-16.91733-8.40679l-.85151,7.23611H143.46417V11.61414Zm.85037,48.09374c0,9.47146,7.02295,15.42861,15.21659,15.42861,8.29851,0,14.89628-6.27746,14.89628-15.42861,0-9.47032-6.59777-15.32147-14.89628-15.32147A14.97,14.97,0,0,0,157.29578,59.70788Z" fill="#3a86ff"/><path d="M221.03129,64.3906c.85151,6.49175,6.49062,11.17221,15.64177,11.17221,4.78761,0,11.0662-1.809,14.04478-4.89475l8.29964,8.1925c-5.53309,5.74739-14.5771,8.51281-22.55758,8.51281-18.088,0-28.835-11.17221-28.835-27.98466,0-15.961,10.853-27.45233,27.87751-27.45233,17.55682,0,28.51587,10.853,26.49481,32.45422Zm28.517-10.747c-.85151-6.80979-6.17145-10.21582-13.61959-10.21582-7.02295,0-12.76921,3.406-14.68425,10.21582Z" fill="#3a86ff"/><path d="M313.60184,33.53338h12.4489V85.99066H313.815l-.63835-7.66017c-2.97971,6.17144-11.17221,9.14889-17.02448,9.25717-15.53463.106-27.02714-9.47146-27.02714-27.87978,0-18.088,12.02372-27.55834,27.34631-27.45233,7.02183,0,13.7256,3.29888,16.70531,8.51281Zm-31.49557,26.1745c0,10.00379,6.91693,15.96095,15.53575,15.96095,20.42938,0,20.42938-31.81475,0-31.81475C289.0232,43.85408,282.10627,49.70635,282.10627,59.70788Z" fill="#3a86ff"/><path d="M347.75907,33.53338V60.98683c0,7.97822,4.36242,14.04365,12.66207,14.04365,7.97934,0,13.40642-6.70378,13.40642-14.682V33.53338h12.87523V86.09667H375.10426l-.85151-7.12783c-5.42595,5.31881-10.42672,7.8722-17.76884,7.8722-12.556,0-21.70607-9.4692-21.70607-25.74819V33.53338Z" fill="#3a86ff"/><path d="M416.49309,18.74311V33.63939h14.47222V44.8116H416.38708V67.47632c0,5.00077,2.76767,7.44814,6.80979,7.44814a14.83894,14.83894,0,0,0,6.27746-1.59474l3.618,11.06394A28.96329,28.96329,0,0,1,422.34649,86.629c-11.38424.42631-18.83238-6.06543-18.83238-19.15269V44.8116h-9.7895V33.63939h9.7895V20.12582Z" fill="#3a86ff"/><path d="M454.79846,18.74311c0,10.10755-15.3226,10.10755-15.3226,0C439.47586,8.63444,454.79846,8.63444,454.79846,18.74311ZM440.64654,33.32022V85.99066h12.98124V33.32022Z" fill="#3a86ff"/><path d="M469.58872,85.99066V45.66311h-9.7895V34.27774h9.7895V30.76683c0-14.04591,9.4692-20.53652,20.00306-20.53652a25.30609,25.30609,0,0,1,13.61959,4.2564l-4.78874,9.68236a14.45827,14.45827,0,0,0-7.98047-2.76655c-4.46843,0-7.8722,2.9797-7.8722,9.36431v3.51091h15.42861V45.66311H482.57V85.99066Z" fill="#3a86ff"/><path d="M519.27833,33.53338V60.98683c0,7.97822,4.36242,14.04365,12.66319,14.04365,7.98047,0,13.4053-6.70378,13.4053-14.682V33.53338H558.222V86.09667H546.62577l-.85263-7.12783c-5.42709,5.31881-10.42785,7.8722-17.77,7.8722-12.55492,0-21.70607-9.4692-21.70607-25.74819V33.53338Z" fill="#3a86ff"/><path d="M582.58977,11.61414V85.99066H569.71455V11.61414Z" fill="#3a86ff"/><path d="M641.43053,78.86056a26.768,26.768,0,0,1-19.579,8.08875c-15.00229,0-27.4512-9.68349-27.4512-27.24143,0-17.55681,12.23462-27.23917,27.4512-27.23917a26.21747,26.21747,0,0,1,19.04667,7.87446l-5.5331,5.74513a19.10011,19.10011,0,0,0-13.30154-5.31994c-10.42784,0-18.83238,7.129-18.83238,18.93952,0,12.23688,8.51281,18.94065,18.72637,18.94065a18.86929,18.86929,0,0,0,13.7256-5.53309l5.8534,5.8534Z" fill="#e63946"/><path d="M675.26521,32.25555c16.067,0,27.34744,11.27936,27.34744,27.55835,0,15.9632-11.49251,27.13541-27.34744,27.13541-15.74666,0-27.23917-11.17221-27.23917-27.13541C648.026,43.53491,659.62457,32.25555,675.26521,32.25555Zm.10827,7.98048c-10.74815,0-18.62261,7.87445-18.62261,19.57787,0,11.06845,7.76845,18.94065,18.51434,18.94065,10.85416,0,18.62035-7.8722,18.72862-18.94065C693.99383,48.11048,685.90734,40.236,675.37348,40.236Z" fill="#e63946"/><path d="M766.87824,11.401V85.88464h-8.19251l-.42631-9.57747c-4.25415,7.23611-11.91658,10.64214-19.68276,10.64214-15.00455,0-26.60083-9.89552-26.60083-27.24143,0-17.66283,11.59628-27.23917,26.49481-27.23917,7.44814,0,15.95869,3.4049,19.68276,10.53386V11.507h8.61882ZM739.215,40.5552c-10.21581,0-18.51433,6.70378-18.51433,19.04667,0,12.13086,8.29852,19.04666,18.51433,19.04666,10.42785,0,18.62035-7.66017,18.62035-19.15381,0-11.27822-8.30077-18.93952-18.72636-18.93952Z" fill="#e63946"/><path d="M829.86938,77.58387c-5.32107,6.27972-14.47222,9.36544-22.66472,9.36544-16.279,0-27.66323-10.74815-27.66323-27.45459,0-15.8538,11.38424-27.23917,27.23917-27.23917,16.067,0,28.30158,9.89552,26.28052,30.85836H788.37228c.95639,9.68348,8.93686,15.74665,19.04667,15.74665,5.95715,0,13.19326-2.3391,16.7053-6.5955l5.85115,5.31881ZM824.7626,55.8778c-.42632-10.21469-7.44814-15.74779-17.77-15.74779-9.15115,0-17.13163,5.5331-18.62035,15.64064H824.7626Z" fill="#e63946"/><path d="M30.72406,88.21119c-11.662,1.89911-15.636-2.59194-15.636-12.87176V62.90024c0-4.05847-.86163-8.80977-6.47808-8.80977V48.64635c5.61645,0,6.47808-4.7513,6.47808-8.80977V27.91437c0-10.27631,4.32224-15.02761,15.636-12.86825V20.3144c-6.65041-1.29772-8.54952.86515-8.54952,7.86022v11.662c0,4.92362.0844,9.84724-6.049,11.48963,6.22135,1.64238,6.13343,6.73833,6.13343,11.48963V74.99477c0,6.99858,1.64238,8.63745,8.553,7.68789v5.44061Z" fill="#e63946"/><path d="M108.48819,83.19964c6.99507,1.03748,8.63745-.6049,8.63745-7.6V63.42074c0-4.83922-.08441-9.93517,6.04551-11.57755-6.21784-1.72679-6.12992-6.65041-6.12992-11.574v-11.574c0-6.99858-1.90263-9.15795-8.553-7.86374v-5.3562c11.31731-2.07144,15.636,2.67986,15.636,12.95969V40.26915c0,4.05847.86163,8.80977,6.47808,8.80977v5.3562c-5.61645,0-6.47808,4.7513-6.47808,8.80977V75.6876c0,10.27631-3.97407,14.77087-15.636,12.86824v-5.3562Z" fill="#e63946"/><path d="M69.65014,19.76681a33.87677,33.87677,0,1,0,33.87671,33.87671A33.87658,33.87658,0,0,0,69.65014,19.76681ZM80.627,72.65591H58.67327L47.69664,53.64352,58.67327,34.63125H80.627L91.60363,53.64352Z" fill="#e63946"/></svg>