<svg id="Layer_1" data-name="Layer 1" xmlns="http://www.w3.org/2000/svg" viewBox="0 0 283.46457 283.46457"><path d="M58.93062,219.36048c-24.83483,4.04428-33.29784-5.51968-33.29784-27.41117v-26.49c0-8.64275-1.8349-18.76092-13.79546-18.76092V135.10482c11.96056,0,13.79546-10.11817,13.79546-18.76093v-25.389c0-21.884,9.20446-32.00218,33.29784-27.40369V74.77027c-14.16244-2.76359-18.20671,1.84239-18.20671,16.73879v24.83483c0,10.48515.17974,20.9703-12.88176,24.46784,13.24874,3.49755,13.0615,14.34968,13.0615,24.46785v25.93577c0,14.90389,3.49755,18.39395,18.21421,16.37181v11.58609Z" fill="#e63946"/><path d="M224.534,208.6881c14.8964,2.20937,18.39394-1.28818,18.39394-16.18458V166.56775c0-10.3054-.17974-21.15753,12.87427-24.65508-13.24125-3.67729-13.054-14.16244-13.054-24.64759V92.61749c0-14.90389-4.05176-19.50238-18.2142-16.74628V64.46486c24.10086-4.41125,33.29784,5.70692,33.29784,27.59842v25.2018c0,8.64276,1.8349,18.76093,13.79546,18.76093v11.40635c-11.96056,0-13.79546,10.11817-13.79546,18.76093v26.49747c0,21.884-8.463,31.45545-33.29784,27.40369V208.6881Z" fill="#e63946"/><path d="M141.826,73.60413a72.14259,72.14259,0,1,0,72.14246,72.14246A72.14218,72.14218,0,0,0,141.826,73.60413ZM165.20189,186.2346H118.45012l-23.37538-40.488,23.37538-40.48775h46.75177l23.37538,40.48775Z" fill="#e63946"/></svg>